<?xml version="1.0" encoding="UTF-8"?>
<svg xmlns="http://www.w3.org/2000/svg" xmlns:xlink="http://www.w3.org/1999/xlink" width="36px" height="36px" viewBox="0 0 36 36" version="1.1">
<defs>
<filter id="alpha" filterUnits="objectBoundingBox" x="0%" y="0%" width="100%" height="100%">
  <feColorMatrix type="matrix" in="SourceGraphic" values="0 0 0 0 1 0 0 0 0 1 0 0 0 0 1 0 0 0 1 0"/>
</filter>
<mask id="mask0">
  <g filter="url(#alpha)">
<rect x="0" y="0" width="36" height="36" style="fill:rgb(0%,0%,0%);fill-opacity:0.937255;stroke:none;"/>
  </g>
</mask>
<clipPath id="clip1">
  <rect x="0" y="0" width="36" height="36"/>
</clipPath>
<g id="surface5" clip-path="url(#clip1)">
<path style=" stroke:none;fill-rule:evenodd;fill:rgb(32.941176%,30.588235%,81.568627%);fill-opacity:1;" d="M 12.539062 9.390625 C 11.871094 9.804688 11.191406 10.222656 10.5 10.644531 C 10.242188 10.8125 9.960938 10.914062 9.660156 10.945312 C 11.351562 8.640625 13.59375 7.105469 16.378906 6.339844 C 17.007812 6.132812 17.648438 6.054688 18.300781 6.101562 C 16.03125 6.613281 14.109375 7.707031 12.539062 9.390625 Z M 12.539062 9.390625 "/>
</g>
<mask id="mask1">
  <g filter="url(#alpha)">
<rect x="0" y="0" width="36" height="36" style="fill:rgb(0%,0%,0%);fill-opacity:0.807843;stroke:none;"/>
  </g>
</mask>
<clipPath id="clip2">
  <rect x="0" y="0" width="36" height="36"/>
</clipPath>
<g id="surface8" clip-path="url(#clip2)">
<path style=" stroke:none;fill-rule:evenodd;fill:rgb(65.882353%,15.686275%,59.607843%);fill-opacity:1;" d="M 20.460938 6.757812 C 21.035156 6.816406 21.597656 6.9375 22.140625 7.117188 C 22.042969 7.261719 21.921875 7.382812 21.78125 7.476562 C 21.238281 7.296875 20.679688 7.21875 20.101562 7.234375 C 20.21875 7.078125 20.339844 6.917969 20.460938 6.757812 Z M 20.460938 6.757812 "/>
</g>
<mask id="mask2">
  <g filter="url(#alpha)">
<rect x="0" y="0" width="36" height="36" style="fill:rgb(0%,0%,0%);fill-opacity:0.929412;stroke:none;"/>
  </g>
</mask>
<clipPath id="clip3">
  <rect x="0" y="0" width="36" height="36"/>
</clipPath>
<g id="surface11" clip-path="url(#clip3)">
<path style=" stroke:none;fill-rule:evenodd;fill:rgb(49.803922%,23.137255%,70.588235%);fill-opacity:1;" d="M 20.460938 6.757812 C 20.339844 6.917969 20.21875 7.078125 20.101562 7.234375 C 18.242188 7.265625 16.601562 7.863281 15.179688 9.03125 C 15.164062 8.902344 15.183594 8.785156 15.238281 8.671875 C 15.570312 8.285156 15.871094 7.886719 16.140625 7.476562 C 17.496094 6.832031 18.933594 6.59375 20.460938 6.757812 Z M 20.460938 6.757812 "/>
</g>
<mask id="mask3">
  <g filter="url(#alpha)">
<rect x="0" y="0" width="36" height="36" style="fill:rgb(0%,0%,0%);fill-opacity:0.972549;stroke:none;"/>
  </g>
</mask>
<clipPath id="clip4">
  <rect x="0" y="0" width="36" height="36"/>
</clipPath>
<g id="surface14" clip-path="url(#clip4)">
<path style=" stroke:none;fill-rule:evenodd;fill:rgb(43.137255%,26.666667%,75.686275%);fill-opacity:1;" d="M 16.140625 7.476562 C 15.871094 7.886719 15.570312 8.285156 15.238281 8.671875 C 15.183594 8.785156 15.164062 8.902344 15.179688 9.03125 C 14.226562 9.902344 13.507812 10.9375 13.019531 12.140625 C 12.21875 13.097656 11.421875 14.054688 10.621094 15.011719 C 10.992188 11.414062 12.832031 8.902344 16.140625 7.476562 Z M 16.140625 7.476562 "/>
</g>
<mask id="mask4">
  <g filter="url(#alpha)">
<rect x="0" y="0" width="36" height="36" style="fill:rgb(0%,0%,0%);fill-opacity:0.780392;stroke:none;"/>
  </g>
</mask>
<clipPath id="clip5">
  <rect x="0" y="0" width="36" height="36"/>
</clipPath>
<g id="surface17" clip-path="url(#clip5)">
<path style=" stroke:none;fill-rule:evenodd;fill:rgb(76.078431%,14.117647%,48.235294%);fill-opacity:1;" d="M 22.140625 7.117188 C 23.199219 7.40625 24.160156 7.882812 25.019531 8.550781 C 25.019531 8.789062 24.898438 8.910156 24.660156 8.910156 C 23.832031 8.179688 22.875 7.699219 21.78125 7.476562 C 21.921875 7.382812 22.042969 7.261719 22.140625 7.117188 Z M 22.140625 7.117188 "/>
</g>
<mask id="mask5">
  <g filter="url(#alpha)">
<rect x="0" y="0" width="36" height="36" style="fill:rgb(0%,0%,0%);fill-opacity:0.964706;stroke:none;"/>
  </g>
</mask>
<clipPath id="clip6">
  <rect x="0" y="0" width="36" height="36"/>
</clipPath>
<g id="surface20" clip-path="url(#clip6)">
<path style=" stroke:none;fill-rule:evenodd;fill:rgb(65.882353%,16.078431%,59.607843%);fill-opacity:1;" d="M 22.980469 8.671875 C 23.160156 9.355469 22.957031 9.933594 22.378906 10.40625 C 21.410156 10.773438 20.453125 11.152344 19.5 11.542969 C 19.5 11.359375 19.582031 11.21875 19.738281 11.121094 C 20.875 10.371094 21.953125 9.554688 22.980469 8.671875 Z M 22.980469 8.671875 "/>
</g>
<mask id="mask6">
  <g filter="url(#alpha)">
<rect x="0" y="0" width="36" height="36" style="fill:rgb(0%,0%,0%);fill-opacity:0.913725;stroke:none;"/>
  </g>
</mask>
<clipPath id="clip7">
  <rect x="0" y="0" width="36" height="36"/>
</clipPath>
<g id="surface23" clip-path="url(#clip7)">
<path style=" stroke:none;fill-rule:evenodd;fill:rgb(81.568627%,19.215686%,35.294118%);fill-opacity:1;" d="M 25.019531 8.550781 C 25.792969 9.160156 26.433594 9.878906 26.941406 10.703125 C 26.96875 10.996094 26.847656 11.195312 26.578125 11.300781 C 26.074219 10.398438 25.433594 9.601562 24.660156 8.910156 C 24.898438 8.910156 25.019531 8.789062 25.019531 8.550781 Z M 25.019531 8.550781 "/>
</g>
<mask id="mask7">
  <g filter="url(#alpha)">
<rect x="0" y="0" width="36" height="36" style="fill:rgb(0%,0%,0%);fill-opacity:0.898039;stroke:none;"/>
  </g>
</mask>
<clipPath id="clip8">
  <rect x="0" y="0" width="36" height="36"/>
</clipPath>
<g id="surface26" clip-path="url(#clip8)">
<path style=" stroke:none;fill-rule:evenodd;fill:rgb(47.058824%,24.705882%,72.941176%);fill-opacity:1;" d="M 20.339844 9.628906 C 18.882812 10.898438 17.402344 12.15625 15.898438 13.394531 C 15.75 13.488281 15.589844 13.550781 15.421875 13.574219 C 15.753906 12.023438 16.671875 10.96875 18.179688 10.40625 C 18.898438 10.132812 19.617188 9.875 20.339844 9.628906 Z M 20.339844 9.628906 "/>
</g>
<mask id="mask8">
  <g filter="url(#alpha)">
<rect x="0" y="0" width="36" height="36" style="fill:rgb(0%,0%,0%);fill-opacity:0.937255;stroke:none;"/>
  </g>
</mask>
<clipPath id="clip9">
  <rect x="0" y="0" width="36" height="36"/>
</clipPath>
<g id="surface29" clip-path="url(#clip9)">
<path style=" stroke:none;fill-rule:evenodd;fill:rgb(58.431373%,20%,65.490196%);fill-opacity:1;" d="M 22.980469 8.671875 C 21.953125 9.554688 20.875 10.371094 19.738281 11.121094 C 19.582031 11.21875 19.5 11.359375 19.5 11.542969 C 18.300781 11.808594 17.441406 12.484375 16.921875 13.574219 C 16.859375 13.851562 16.839844 14.128906 16.859375 14.410156 C 16.421875 14.730469 15.980469 15.050781 15.539062 15.367188 C 15.449219 14.773438 15.410156 14.175781 15.421875 13.574219 C 15.589844 13.550781 15.75 13.488281 15.898438 13.394531 C 17.402344 12.15625 18.882812 10.898438 20.339844 9.628906 C 21.195312 9.242188 22.074219 8.921875 22.980469 8.671875 Z M 22.980469 8.671875 "/>
</g>
<mask id="mask9">
  <g filter="url(#alpha)">
<rect x="0" y="0" width="36" height="36" style="fill:rgb(0%,0%,0%);fill-opacity:0.968627;stroke:none;"/>
  </g>
</mask>
<clipPath id="clip10">
  <rect x="0" y="0" width="36" height="36"/>
</clipPath>
<g id="surface32" clip-path="url(#clip10)">
<path style=" stroke:none;fill-rule:evenodd;fill:rgb(89.019608%,23.529412%,24.705882%);fill-opacity:1;" d="M 26.941406 10.703125 C 27.464844 11.429688 27.863281 12.226562 28.140625 13.097656 C 27.859375 13.414062 27.578125 13.734375 27.300781 14.054688 C 27.15625 13.113281 26.914062 12.199219 26.578125 11.300781 C 26.847656 11.195312 26.96875 10.996094 26.941406 10.703125 Z M 26.941406 10.703125 "/>
</g>
<mask id="mask10">
  <g filter="url(#alpha)">
<rect x="0" y="0" width="36" height="36" style="fill:rgb(0%,0%,0%);fill-opacity:0.968627;stroke:none;"/>
  </g>
</mask>
<clipPath id="clip11">
  <rect x="0" y="0" width="36" height="36"/>
</clipPath>
<g id="surface35" clip-path="url(#clip11)">
<path style=" stroke:none;fill-rule:evenodd;fill:rgb(50.588235%,23.529412%,71.372549%);fill-opacity:1;" d="M 13.019531 12.140625 C 12.769531 12.875 12.609375 13.632812 12.539062 14.410156 C 11.980469 14.953125 11.480469 15.550781 11.039062 16.207031 C 10.90625 16.402344 10.722656 16.523438 10.5 16.566406 C 10.460938 16.023438 10.5 15.503906 10.621094 15.011719 C 11.421875 14.054688 12.21875 13.097656 13.019531 12.140625 Z M 13.019531 12.140625 "/>
</g>
<mask id="mask11">
  <g filter="url(#alpha)">
<rect x="0" y="0" width="36" height="36" style="fill:rgb(0%,0%,0%);fill-opacity:0.972549;stroke:none;"/>
  </g>
</mask>
<clipPath id="clip12">
  <rect x="0" y="0" width="36" height="36"/>
</clipPath>
<g id="surface38" clip-path="url(#clip12)">
<path style=" stroke:none;fill-rule:evenodd;fill:rgb(75.686275%,14.509804%,50.980392%);fill-opacity:1;" d="M 23.339844 12.5 C 23.449219 12.882812 23.488281 13.28125 23.460938 13.695312 C 22.769531 14.277344 22.050781 14.855469 21.300781 15.429688 C 20.285156 15.953125 19.324219 16.574219 18.421875 17.28125 C 18.292969 16.882812 18.292969 16.484375 18.421875 16.085938 C 19.382812 15.757812 20.34375 15.421875 21.300781 15.070312 C 21.75 14.671875 21.949219 14.171875 21.898438 13.574219 C 22.371094 13.21875 22.851562 12.859375 23.339844 12.5 Z M 23.339844 12.5 "/>
</g>
<mask id="mask12">
  <g filter="url(#alpha)">
<rect x="0" y="0" width="36" height="36" style="fill:rgb(0%,0%,0%);fill-opacity:0.984314;stroke:none;"/>
  </g>
</mask>
<clipPath id="clip13">
  <rect x="0" y="0" width="36" height="36"/>
</clipPath>
<g id="surface41" clip-path="url(#clip13)">
<path style=" stroke:none;fill-rule:evenodd;fill:rgb(79.215686%,16.470588%,45.098039%);fill-opacity:1;" d="M 23.460938 13.695312 C 23.390625 13.988281 23.3125 14.265625 23.21875 14.53125 C 21.621094 15.6875 20.019531 16.84375 18.421875 18 C 18.421875 17.761719 18.421875 17.523438 18.421875 17.28125 C 19.324219 16.574219 20.285156 15.953125 21.300781 15.429688 C 22.050781 14.855469 22.769531 14.277344 23.460938 13.695312 Z M 23.460938 13.695312 "/>
</g>
<mask id="mask13">
  <g filter="url(#alpha)">
<rect x="0" y="0" width="36" height="36" style="fill:rgb(0%,0%,0%);fill-opacity:0.984314;stroke:none;"/>
  </g>
</mask>
<clipPath id="clip14">
  <rect x="0" y="0" width="36" height="36"/>
</clipPath>
<g id="surface44" clip-path="url(#clip14)">
<path style=" stroke:none;fill-rule:evenodd;fill:rgb(92.156863%,26.27451%,19.607843%);fill-opacity:1;" d="M 28.140625 13.097656 C 29.0625 17.054688 27.984375 20.34375 24.898438 22.964844 C 22.929688 24.40625 20.730469 24.984375 18.300781 24.699219 C 18.941406 23.859375 19.578125 23.023438 20.21875 22.1875 C 24.800781 21.40625 27.160156 18.695312 27.300781 14.054688 C 27.578125 13.734375 27.859375 13.414062 28.140625 13.097656 Z M 28.140625 13.097656 "/>
</g>
<mask id="mask14">
  <g filter="url(#alpha)">
<rect x="0" y="0" width="36" height="36" style="fill:rgb(0%,0%,0%);fill-opacity:0.968627;stroke:none;"/>
  </g>
</mask>
<clipPath id="clip15">
  <rect x="0" y="0" width="36" height="36"/>
</clipPath>
<g id="surface47" clip-path="url(#clip15)">
<path style=" stroke:none;fill-rule:evenodd;fill:rgb(52.156863%,22.745098%,69.803922%);fill-opacity:1;" d="M 10.859375 12.257812 C 10.546875 12.941406 10.347656 13.660156 10.261719 14.410156 C 9.4375 14.90625 8.558594 15.425781 7.621094 15.964844 C 7.652344 15.152344 7.855469 14.398438 8.21875 13.695312 C 9.070312 13.164062 9.953125 12.6875 10.859375 12.257812 Z M 10.859375 12.257812 "/>
</g>
<mask id="mask15">
  <g filter="url(#alpha)">
<rect x="0" y="0" width="36" height="36" style="fill:rgb(0%,0%,0%);fill-opacity:0.968627;stroke:none;"/>
  </g>
</mask>
<clipPath id="clip16">
  <rect x="0" y="0" width="36" height="36"/>
</clipPath>
<g id="surface50" clip-path="url(#clip16)">
<path style=" stroke:none;fill-rule:evenodd;fill:rgb(82.745098%,18.823529%,38.431373%);fill-opacity:1;" d="M 23.21875 14.53125 C 23.136719 15.472656 22.65625 16.132812 21.78125 16.503906 C 21.179688 16.703125 20.578125 16.902344 19.980469 17.101562 C 19.871094 17.347656 19.828125 17.605469 19.859375 17.878906 C 19.4375 18.191406 18.996094 18.46875 18.539062 18.71875 C 18.460938 18.484375 18.421875 18.246094 18.421875 18 C 20.019531 16.84375 21.621094 15.6875 23.21875 14.53125 Z M 23.21875 14.53125 "/>
</g>
<mask id="mask16">
  <g filter="url(#alpha)">
<rect x="0" y="0" width="36" height="36" style="fill:rgb(0%,0%,0%);fill-opacity:0.94902;stroke:none;"/>
  </g>
</mask>
<clipPath id="clip17">
  <rect x="0" y="0" width="36" height="36"/>
</clipPath>
<g id="surface53" clip-path="url(#clip17)">
<path style=" stroke:none;fill-rule:evenodd;fill:rgb(73.72549%,13.72549%,54.117647%);fill-opacity:1;" d="M 16.859375 14.410156 C 16.96875 14.757812 17.007812 15.117188 16.980469 15.488281 C 16.890625 15.472656 16.8125 15.492188 16.738281 15.546875 C 16.5 16.007812 16.140625 16.308594 15.660156 16.445312 C 15.550781 16.097656 15.511719 15.742188 15.539062 15.367188 C 15.980469 15.050781 16.421875 14.730469 16.859375 14.410156 Z M 16.859375 14.410156 "/>
</g>
<mask id="mask17">
  <g filter="url(#alpha)">
<rect x="0" y="0" width="36" height="36" style="fill:rgb(0%,0%,0%);fill-opacity:0.992157;stroke:none;"/>
  </g>
</mask>
<clipPath id="clip18">
  <rect x="0" y="0" width="36" height="36"/>
</clipPath>
<g id="surface56" clip-path="url(#clip18)">
<path style=" stroke:none;fill-rule:evenodd;fill:rgb(62.352941%,18.431373%,63.137255%);fill-opacity:1;" d="M 10.261719 14.410156 C 10.101562 15.117188 10.023438 15.832031 10.019531 16.566406 C 9.097656 17.023438 8.21875 17.542969 7.378906 18.121094 C 7.382812 17.375 7.460938 16.660156 7.621094 15.964844 C 8.558594 15.425781 9.4375 14.90625 10.261719 14.410156 Z M 10.261719 14.410156 "/>
</g>
<mask id="mask18">
  <g filter="url(#alpha)">
<rect x="0" y="0" width="36" height="36" style="fill:rgb(0%,0%,0%);fill-opacity:0.960784;stroke:none;"/>
  </g>
</mask>
<clipPath id="clip19">
  <rect x="0" y="0" width="36" height="36"/>
</clipPath>
<g id="surface59" clip-path="url(#clip19)">
<path style=" stroke:none;fill-rule:evenodd;fill:rgb(60%,19.607843%,64.705882%);fill-opacity:1;" d="M 12.539062 14.410156 C 12.527344 15.21875 12.605469 16.015625 12.78125 16.804688 C 12.21875 17.480469 11.660156 18.160156 11.101562 18.835938 C 10.792969 18.117188 10.59375 17.359375 10.5 16.566406 C 10.722656 16.523438 10.90625 16.402344 11.039062 16.207031 C 11.480469 15.550781 11.980469 14.953125 12.539062 14.410156 Z M 12.539062 14.410156 "/>
</g>
<mask id="mask19">
  <g filter="url(#alpha)">
<rect x="0" y="0" width="36" height="36" style="fill:rgb(0%,0%,0%);fill-opacity:0.960784;stroke:none;"/>
  </g>
</mask>
<clipPath id="clip20">
  <rect x="0" y="0" width="36" height="36"/>
</clipPath>
<g id="surface62" clip-path="url(#clip20)">
<path style=" stroke:none;fill-rule:evenodd;fill:rgb(78.823529%,16.470588%,44.705882%);fill-opacity:1;" d="M 16.980469 15.488281 C 17.058594 15.960938 17.097656 16.441406 17.101562 16.921875 C 16.683594 17.3125 16.242188 17.667969 15.78125 18 C 15.660156 17.503906 15.621094 16.988281 15.660156 16.445312 C 16.140625 16.308594 16.5 16.007812 16.738281 15.546875 C 16.8125 15.492188 16.890625 15.472656 16.980469 15.488281 Z M 16.980469 15.488281 "/>
</g>
<mask id="mask20">
  <g filter="url(#alpha)">
<rect x="0" y="0" width="36" height="36" style="fill:rgb(0%,0%,0%);fill-opacity:0.996078;stroke:none;"/>
  </g>
</mask>
<clipPath id="clip21">
  <rect x="0" y="0" width="36" height="36"/>
</clipPath>
<g id="surface65" clip-path="url(#clip21)">
<path style=" stroke:none;fill-rule:evenodd;fill:rgb(69.019608%,15.294118%,58.431373%);fill-opacity:1;" d="M 10.019531 16.566406 C 10.113281 16.875 10.152344 17.195312 10.140625 17.523438 C 9.261719 17.953125 8.382812 18.394531 7.5 18.835938 C 7.421875 18.605469 7.382812 18.367188 7.378906 18.121094 C 8.21875 17.542969 9.097656 17.023438 10.019531 16.566406 Z M 10.019531 16.566406 "/>
</g>
<mask id="mask21">
  <g filter="url(#alpha)">
<rect x="0" y="0" width="36" height="36" style="fill:rgb(0%,0%,0%);fill-opacity:0.913725;stroke:none;"/>
  </g>
</mask>
<clipPath id="clip22">
  <rect x="0" y="0" width="36" height="36"/>
</clipPath>
<g id="surface68" clip-path="url(#clip22)">
<path style=" stroke:none;fill-rule:evenodd;fill:rgb(85.490196%,21.176471%,31.764706%);fill-opacity:1;" d="M 17.101562 17.523438 C 17.21875 18.015625 17.257812 18.535156 17.21875 19.078125 C 16.964844 19.359375 16.726562 19.636719 16.5 19.914062 C 16.078125 19.628906 15.835938 19.230469 15.78125 18.71875 C 16.113281 18.523438 16.433594 18.304688 16.738281 18.058594 C 16.9375 17.925781 17.058594 17.746094 17.101562 17.523438 Z M 17.101562 17.523438 "/>
</g>
<mask id="mask22">
  <g filter="url(#alpha)">
<rect x="0" y="0" width="36" height="36" style="fill:rgb(0%,0%,0%);fill-opacity:0.960784;stroke:none;"/>
  </g>
</mask>
<clipPath id="clip23">
  <rect x="0" y="0" width="36" height="36"/>
</clipPath>
<g id="surface71" clip-path="url(#clip23)">
<path style=" stroke:none;fill-rule:evenodd;fill:rgb(74.901961%,13.72549%,53.333333%);fill-opacity:1;" d="M 10.140625 17.523438 C 10.25 17.953125 10.332031 18.390625 10.378906 18.835938 C 9.542969 19.472656 8.625 19.953125 7.621094 20.273438 C 7.558594 19.796875 7.515625 19.316406 7.5 18.835938 C 8.382812 18.394531 9.261719 17.953125 10.140625 17.523438 Z M 10.140625 17.523438 "/>
</g>
<mask id="mask23">
  <g filter="url(#alpha)">
<rect x="0" y="0" width="36" height="36" style="fill:rgb(0%,0%,0%);fill-opacity:0.972549;stroke:none;"/>
  </g>
</mask>
<clipPath id="clip24">
  <rect x="0" y="0" width="36" height="36"/>
</clipPath>
<g id="surface74" clip-path="url(#clip24)">
<path style=" stroke:none;fill-rule:evenodd;fill:rgb(69.019608%,15.294118%,58.039216%);fill-opacity:1;" d="M 12.78125 16.804688 C 12.953125 17.390625 13.195312 17.949219 13.5 18.476562 C 12.886719 19.128906 12.367188 19.847656 11.941406 20.632812 C 11.5 20.117188 11.222656 19.519531 11.101562 18.835938 C 11.660156 18.160156 12.21875 17.480469 12.78125 16.804688 Z M 12.78125 16.804688 "/>
</g>
<mask id="mask24">
  <g filter="url(#alpha)">
<rect x="0" y="0" width="36" height="36" style="fill:rgb(0%,0%,0%);fill-opacity:0.952941;stroke:none;"/>
  </g>
</mask>
<clipPath id="clip25">
  <rect x="0" y="0" width="36" height="36"/>
</clipPath>
<g id="surface77" clip-path="url(#clip25)">
<path style=" stroke:none;fill-rule:evenodd;fill:rgb(87.843137%,22.745098%,27.45098%);fill-opacity:1;" d="M 19.859375 17.878906 C 20.039062 18.503906 19.917969 19.082031 19.5 19.613281 C 19.210938 19.820312 18.890625 19.917969 18.539062 19.914062 C 18.539062 19.515625 18.539062 19.117188 18.539062 18.71875 C 18.996094 18.46875 19.4375 18.191406 19.859375 17.878906 Z M 19.859375 17.878906 "/>
</g>
<mask id="mask25">
  <g filter="url(#alpha)">
<rect x="0" y="0" width="36" height="36" style="fill:rgb(0%,0%,0%);fill-opacity:0.972549;stroke:none;"/>
  </g>
</mask>
<clipPath id="clip26">
  <rect x="0" y="0" width="36" height="36"/>
</clipPath>
<g id="surface80" clip-path="url(#clip26)">
<path style=" stroke:none;fill-rule:evenodd;fill:rgb(74.509804%,13.72549%,52.941176%);fill-opacity:1;" d="M 13.5 18.476562 C 13.742188 18.878906 13.980469 19.277344 14.21875 19.675781 C 13.613281 20.238281 13.09375 20.878906 12.660156 21.589844 C 12.363281 21.3125 12.121094 20.992188 11.941406 20.632812 C 12.367188 19.847656 12.886719 19.128906 13.5 18.476562 Z M 13.5 18.476562 "/>
</g>
<mask id="mask26">
  <g filter="url(#alpha)">
<rect x="0" y="0" width="36" height="36" style="fill:rgb(0%,0%,0%);fill-opacity:0.827451;stroke:none;"/>
  </g>
</mask>
<clipPath id="clip27">
  <rect x="0" y="0" width="36" height="36"/>
</clipPath>
<g id="surface83" clip-path="url(#clip27)">
<path style=" stroke:none;fill-rule:evenodd;fill:rgb(90.196078%,23.921569%,23.529412%);fill-opacity:1;" d="M 17.21875 19.078125 C 17.335938 19.371094 17.375 19.6875 17.339844 20.035156 C 17.050781 20.039062 16.773438 20 16.5 19.914062 C 16.726562 19.636719 16.964844 19.359375 17.21875 19.078125 Z M 17.21875 19.078125 "/>
</g>
<mask id="mask27">
  <g filter="url(#alpha)">
<rect x="0" y="0" width="36" height="36" style="fill:rgb(0%,0%,0%);fill-opacity:0.972549;stroke:none;"/>
  </g>
</mask>
<clipPath id="clip28">
  <rect x="0" y="0" width="36" height="36"/>
</clipPath>
<g id="surface86" clip-path="url(#clip28)">
<path style=" stroke:none;fill-rule:evenodd;fill:rgb(78.431373%,16.470588%,45.098039%);fill-opacity:1;" d="M 14.21875 19.675781 C 14.746094 20.199219 15.308594 20.679688 15.898438 21.109375 C 15.378906 21.609375 14.917969 22.167969 14.519531 22.785156 C 14.421875 22.941406 14.28125 23.023438 14.101562 23.023438 C 13.5 22.664062 13.019531 22.1875 12.660156 21.589844 C 13.09375 20.878906 13.613281 20.238281 14.21875 19.675781 Z M 14.21875 19.675781 "/>
</g>
<mask id="mask28">
  <g filter="url(#alpha)">
<rect x="0" y="0" width="36" height="36" style="fill:rgb(0%,0%,0%);fill-opacity:0.980392;stroke:none;"/>
  </g>
</mask>
<clipPath id="clip29">
  <rect x="0" y="0" width="36" height="36"/>
</clipPath>
<g id="surface89" clip-path="url(#clip29)">
<path style=" stroke:none;fill-rule:evenodd;fill:rgb(80.784314%,17.647059%,41.176471%);fill-opacity:1;" d="M 10.859375 20.035156 C 11.101562 20.511719 11.339844 20.988281 11.578125 21.46875 C 10.765625 21.855469 9.96875 22.273438 9.179688 22.722656 C 8.996094 22.847656 8.835938 22.988281 8.699219 23.144531 C 8.363281 22.59375 8.125 21.992188 7.980469 21.347656 C 8.054688 21.363281 8.113281 21.402344 8.160156 21.46875 C 9.003906 20.878906 9.90625 20.398438 10.859375 20.035156 Z M 10.859375 20.035156 "/>
</g>
<mask id="mask29">
  <g filter="url(#alpha)">
<rect x="0" y="0" width="36" height="36" style="fill:rgb(0%,0%,0%);fill-opacity:0.964706;stroke:none;"/>
  </g>
</mask>
<clipPath id="clip30">
  <rect x="0" y="0" width="36" height="36"/>
</clipPath>
<g id="surface92" clip-path="url(#clip30)">
<path style=" stroke:none;fill-rule:evenodd;fill:rgb(83.529412%,19.607843%,36.862745%);fill-opacity:1;" d="M 15.898438 21.109375 C 16.402344 21.378906 16.921875 21.617188 17.460938 21.828125 C 16.855469 22.511719 16.292969 23.226562 15.78125 23.980469 C 15.179688 23.722656 14.621094 23.402344 14.101562 23.023438 C 14.28125 23.023438 14.421875 22.941406 14.519531 22.785156 C 14.917969 22.167969 15.378906 21.609375 15.898438 21.109375 Z M 15.898438 21.109375 "/>
</g>
<mask id="mask30">
  <g filter="url(#alpha)">
<rect x="0" y="0" width="36" height="36" style="fill:rgb(0%,0%,0%);fill-opacity:0.984314;stroke:none;"/>
  </g>
</mask>
<clipPath id="clip31">
  <rect x="0" y="0" width="36" height="36"/>
</clipPath>
<g id="surface95" clip-path="url(#clip31)">
<path style=" stroke:none;fill-rule:evenodd;fill:rgb(83.529412%,20%,35.686275%);fill-opacity:1;" d="M 11.578125 21.46875 C 11.78125 21.671875 11.941406 21.910156 12.058594 22.1875 C 12.074219 22.289062 12.035156 22.371094 11.941406 22.425781 C 10.992188 22.957031 10.074219 23.515625 9.179688 24.101562 C 8.960938 23.820312 8.800781 23.5 8.699219 23.144531 C 8.835938 22.988281 8.996094 22.847656 9.179688 22.722656 C 9.96875 22.273438 10.765625 21.855469 11.578125 21.46875 Z M 11.578125 21.46875 "/>
</g>
<mask id="mask31">
  <g filter="url(#alpha)">
<rect x="0" y="0" width="36" height="36" style="fill:rgb(0%,0%,0%);fill-opacity:0.988235;stroke:none;"/>
  </g>
</mask>
<clipPath id="clip32">
  <rect x="0" y="0" width="36" height="36"/>
</clipPath>
<g id="surface98" clip-path="url(#clip32)">
<path style=" stroke:none;fill-rule:evenodd;fill:rgb(86.666667%,21.568627%,30.980392%);fill-opacity:1;" d="M 17.460938 21.828125 C 17.851562 21.945312 18.25 22.023438 18.660156 22.066406 C 18.269531 22.675781 17.847656 23.273438 17.398438 23.859375 C 17.226562 24.09375 17.007812 24.253906 16.738281 24.339844 C 16.386719 24.28125 16.066406 24.160156 15.78125 23.980469 C 16.292969 23.226562 16.855469 22.511719 17.460938 21.828125 Z M 17.460938 21.828125 "/>
</g>
<mask id="mask32">
  <g filter="url(#alpha)">
<rect x="0" y="0" width="36" height="36" style="fill:rgb(0%,0%,0%);fill-opacity:0.952941;stroke:none;"/>
  </g>
</mask>
<clipPath id="clip33">
  <rect x="0" y="0" width="36" height="36"/>
</clipPath>
<g id="surface101" clip-path="url(#clip33)">
<path style=" stroke:none;fill-rule:evenodd;fill:rgb(89.411765%,23.921569%,26.27451%);fill-opacity:1;" d="M 18.660156 22.066406 C 19.167969 22.179688 19.6875 22.21875 20.21875 22.1875 C 19.578125 23.023438 18.941406 23.859375 18.300781 24.699219 C 17.75 24.652344 17.230469 24.53125 16.738281 24.339844 C 17.007812 24.253906 17.226562 24.09375 17.398438 23.859375 C 17.847656 23.273438 18.269531 22.675781 18.660156 22.066406 Z M 18.660156 22.066406 "/>
</g>
<mask id="mask33">
  <g filter="url(#alpha)">
<rect x="0" y="0" width="36" height="36" style="fill:rgb(0%,0%,0%);fill-opacity:0.988235;stroke:none;"/>
  </g>
</mask>
<clipPath id="clip34">
  <rect x="0" y="0" width="36" height="36"/>
</clipPath>
<g id="surface104" clip-path="url(#clip34)">
<path style=" stroke:none;fill-rule:evenodd;fill:rgb(86.666667%,21.960784%,30.980392%);fill-opacity:1;" d="M 12.058594 22.1875 C 12.335938 22.5 12.617188 22.820312 12.898438 23.144531 C 11.855469 23.742188 10.816406 24.339844 9.78125 24.9375 C 9.539062 24.695312 9.335938 24.414062 9.179688 24.101562 C 10.074219 23.515625 10.992188 22.957031 11.941406 22.425781 C 12.035156 22.371094 12.074219 22.289062 12.058594 22.1875 Z M 12.058594 22.1875 "/>
</g>
<mask id="mask34">
  <g filter="url(#alpha)">
<rect x="0" y="0" width="36" height="36" style="fill:rgb(0%,0%,0%);fill-opacity:0.988235;stroke:none;"/>
  </g>
</mask>
<clipPath id="clip35">
  <rect x="0" y="0" width="36" height="36"/>
</clipPath>
<g id="surface107" clip-path="url(#clip35)">
<path style=" stroke:none;fill-rule:evenodd;fill:rgb(92.54902%,26.27451%,20%);fill-opacity:1;" d="M 13.859375 23.980469 C 14.953125 24.804688 16.152344 25.441406 17.460938 25.894531 C 17.171875 27.21875 16.851562 28.535156 16.5 29.839844 C 14.15625 29.132812 12.195312 27.855469 10.621094 26.011719 C 10.609375 25.894531 10.648438 25.792969 10.738281 25.714844 C 11.773438 25.101562 12.8125 24.523438 13.859375 23.980469 Z M 13.859375 23.980469 "/>
</g>
</defs>
<g id="surface1">
<use xlink:href="#surface5" mask="url(#mask0)"/>
<use xlink:href="#surface8" mask="url(#mask1)"/>
<use xlink:href="#surface11" mask="url(#mask2)"/>
<use xlink:href="#surface14" mask="url(#mask3)"/>
<use xlink:href="#surface17" mask="url(#mask4)"/>
<use xlink:href="#surface20" mask="url(#mask5)"/>
<use xlink:href="#surface23" mask="url(#mask6)"/>
<use xlink:href="#surface26" mask="url(#mask7)"/>
<use xlink:href="#surface29" mask="url(#mask8)"/>
<path style=" stroke:none;fill-rule:evenodd;fill:rgb(58.431373%,20%,65.490196%);fill-opacity:1;" d="M 23.339844 12.5 C 22.851562 12.859375 22.371094 13.21875 21.898438 13.574219 C 21.894531 13.511719 21.851562 13.46875 21.78125 13.457031 C 20.992188 13.78125 20.195312 14.0625 19.378906 14.292969 C 20.308594 13.527344 21.269531 12.789062 22.261719 12.078125 C 22.476562 11.957031 22.515625 11.816406 22.378906 11.660156 C 22.621094 11.492188 22.902344 11.410156 23.21875 11.421875 C 23.300781 11.773438 23.339844 12.132812 23.339844 12.5 Z M 23.339844 12.5 "/>
<path style=" stroke:none;fill-rule:evenodd;fill:rgb(42.352941%,27.058824%,76.862745%);fill-opacity:1;" d="M 12.539062 9.390625 C 11.859375 10.269531 11.296875 11.226562 10.859375 12.257812 C 9.953125 12.6875 9.070312 13.164062 8.21875 13.695312 C 8.546875 12.6875 9.023438 11.769531 9.660156 10.945312 C 9.960938 10.914062 10.242188 10.8125 10.5 10.644531 C 11.191406 10.222656 11.871094 9.804688 12.539062 9.390625 Z M 12.539062 9.390625 "/>
<path style=" stroke:none;fill-rule:evenodd;fill:rgb(46.666667%,25.490196%,73.72549%);fill-opacity:1;" d="M 22.378906 11.660156 C 22.515625 11.816406 22.476562 11.957031 22.261719 12.078125 C 21.269531 12.789062 20.308594 13.527344 19.378906 14.292969 C 18.195312 15.09375 17.894531 14.8125 18.480469 13.457031 C 18.660156 13.277344 18.839844 13.097656 19.019531 12.917969 C 20.128906 12.464844 21.25 12.046875 22.378906 11.660156 Z M 22.378906 11.660156 "/>
<use xlink:href="#surface32" mask="url(#mask9)"/>
<use xlink:href="#surface35" mask="url(#mask10)"/>
<use xlink:href="#surface38" mask="url(#mask11)"/>
<use xlink:href="#surface41" mask="url(#mask12)"/>
<use xlink:href="#surface44" mask="url(#mask13)"/>
<use xlink:href="#surface47" mask="url(#mask14)"/>
<use xlink:href="#surface50" mask="url(#mask15)"/>
<use xlink:href="#surface53" mask="url(#mask16)"/>
<use xlink:href="#surface56" mask="url(#mask17)"/>
<use xlink:href="#surface59" mask="url(#mask18)"/>
<use xlink:href="#surface62" mask="url(#mask19)"/>
<use xlink:href="#surface65" mask="url(#mask20)"/>
<path style=" stroke:none;fill-rule:evenodd;fill:rgb(82.745098%,19.215686%,38.431373%);fill-opacity:1;" d="M 17.101562 16.921875 C 17.101562 17.121094 17.101562 17.320312 17.101562 17.523438 C 17.058594 17.746094 16.9375 17.925781 16.738281 18.058594 C 16.433594 18.304688 16.113281 18.523438 15.78125 18.71875 C 15.78125 18.476562 15.78125 18.238281 15.78125 18 C 16.242188 17.667969 16.683594 17.3125 17.101562 16.921875 Z M 17.101562 16.921875 "/>
<use xlink:href="#surface68" mask="url(#mask21)"/>
<use xlink:href="#surface71" mask="url(#mask22)"/>
<use xlink:href="#surface74" mask="url(#mask23)"/>
<use xlink:href="#surface77" mask="url(#mask24)"/>
<use xlink:href="#surface80" mask="url(#mask25)"/>
<path style=" stroke:none;fill-rule:evenodd;fill:rgb(77.647059%,15.294118%,47.843137%);fill-opacity:1;" d="M 10.378906 18.835938 C 10.5625 19.21875 10.722656 19.617188 10.859375 20.035156 C 9.90625 20.398438 9.003906 20.878906 8.160156 21.46875 C 8.113281 21.402344 8.054688 21.363281 7.980469 21.347656 C 7.84375 21.003906 7.722656 20.648438 7.621094 20.273438 C 8.625 19.953125 9.542969 19.472656 10.378906 18.835938 Z M 10.378906 18.835938 "/>
<use xlink:href="#surface83" mask="url(#mask26)"/>
<use xlink:href="#surface86" mask="url(#mask27)"/>
<use xlink:href="#surface89" mask="url(#mask28)"/>
<use xlink:href="#surface92" mask="url(#mask29)"/>
<use xlink:href="#surface95" mask="url(#mask30)"/>
<use xlink:href="#surface98" mask="url(#mask31)"/>
<use xlink:href="#surface101" mask="url(#mask32)"/>
<use xlink:href="#surface104" mask="url(#mask33)"/>
<path style=" stroke:none;fill-rule:evenodd;fill:rgb(89.411765%,23.921569%,25.882353%);fill-opacity:1;" d="M 12.898438 23.144531 C 13.21875 23.421875 13.539062 23.699219 13.859375 23.980469 C 12.8125 24.523438 11.773438 25.101562 10.738281 25.714844 C 10.648438 25.792969 10.609375 25.894531 10.621094 26.011719 C 10.296875 25.6875 10.015625 25.332031 9.78125 24.9375 C 10.816406 24.339844 11.855469 23.742188 12.898438 23.144531 Z M 12.898438 23.144531 "/>
<use xlink:href="#surface107" mask="url(#mask34)"/>
</g>
</svg>
