<?xml version="1.0" encoding="UTF-8"?>
<!DOCTYPE svg PUBLIC "-//W3C//DTD SVG 1.1//EN" "http://www.w3.org/Graphics/SVG/1.1/DTD/svg11.dtd">
<svg xmlns="http://www.w3.org/2000/svg" version="1.1" width="694px" height="236px" style="shape-rendering:geometricPrecision; text-rendering:geometricPrecision; image-rendering:optimizeQuality; fill-rule:evenodd; clip-rule:evenodd" xmlns:xlink="http://www.w3.org/1999/xlink">
<g><path style="opacity:0.984" fill="#d4325f" d="M 157.5,50.5 C 162.58,50.2497 167.58,50.7497 172.5,52C 175.331,53.6657 177.664,55.8324 179.5,58.5C 179.411,74.8306 179.077,91.1639 178.5,107.5C 173.204,95.4636 168.371,83.1302 164,70.5C 163.107,69.2888 162.274,69.2888 161.5,70.5C 160.826,72.1955 160.159,73.8621 159.5,75.5C 158.806,67.2659 158.139,58.9326 157.5,50.5 Z"/></g>
<g><path style="opacity:0.93" fill="#c92a74" d="M 79.5,71.5 C 79.5,65.1667 79.5,58.8333 79.5,52.5C 92.7841,51.5364 106.117,51.2031 119.5,51.5C 120.743,59.6495 117.743,65.4829 110.5,69C 100.163,70.1163 89.8293,70.9496 79.5,71.5 Z"/></g>
<g><path style="opacity:0.969" fill="#cf2e67" d="M 157.5,50.5 C 158.139,58.9326 158.806,67.2659 159.5,75.5C 152.174,93.8045 144.841,112.138 137.5,130.5C 130.5,131.833 123.5,131.833 116.5,130.5C 126.39,105.719 136.557,81.0525 147,56.5C 149.99,53.589 153.49,51.589 157.5,50.5 Z"/></g>
<g><path style="opacity:0.984" fill="#e8403a" d="M 287.5,51.5 C 291.546,51.9521 295.546,52.6187 299.5,53.5C 299.17,69.3422 299.504,85.0089 300.5,100.5C 306.111,110.466 311.778,120.466 317.5,130.5C 310.276,131.812 303.109,131.812 296,130.5C 290.877,121.085 285.377,111.918 279.5,103C 273.843,102.501 268.176,102.334 262.5,102.5C 262.827,112.348 262.494,122.014 261.5,131.5C 261.32,116.163 260.987,100.829 260.5,85.5C 271.245,85.9288 281.912,85.4288 292.5,84C 295.349,81.4406 296.183,78.2739 295,74.5C 293.188,71.1788 290.355,69.8454 286.5,70.5C 284.052,69.5269 281.385,69.1936 278.5,69.5C 278.5,63.8333 278.5,58.1667 278.5,52.5C 281.713,52.81 284.713,52.4767 287.5,51.5 Z"/></g>
<g><path style="opacity:0.982" fill="#5451d6" d="M 340.5,51.5 C 363.167,51.5 385.833,51.5 408.5,51.5C 416.843,92.4874 400.51,109.487 359.5,102.5C 359.5,112.167 359.5,121.833 359.5,131.5C 354.733,131.809 350.066,131.309 345.5,130C 343.951,128.786 342.785,127.286 342,125.5C 340.434,115.227 340.101,104.893 341,94.5C 341.73,90.1037 344.23,87.2704 348.5,86C 360.89,85.9181 373.223,85.2514 385.5,84C 389.623,80.469 391.29,75.969 390.5,70.5C 373.833,70.5 357.167,70.5 340.5,70.5C 340.5,64.1667 340.5,57.8333 340.5,51.5 Z"/></g>
<g><path style="opacity:0.985" fill="#c4267f" d="M 79.5,52.5 C 79.5,58.8333 79.5,65.1667 79.5,71.5C 74.8441,74.4144 72.8441,78.7477 73.5,84.5C 74.5,84.5 75.5,84.5 76.5,84.5C 77.209,85.404 78.209,85.7373 79.5,85.5C 79.5,91.1667 79.5,96.8333 79.5,102.5C 77.5,102.5 75.5,102.5 73.5,102.5C 73.5,112.167 73.5,121.833 73.5,131.5C 69.0638,131.79 64.7305,131.29 60.5,130C 58.1853,128.891 56.6853,127.057 56,124.5C 55.3333,106.833 55.3333,89.1667 56,71.5C 59.5047,59.83 67.338,53.4966 79.5,52.5 Z"/></g>
<g><path style="opacity:0.998" fill="#de384f" d="M 212.5,51.5 C 218.833,51.5 225.167,51.5 231.5,51.5C 231.5,78.1667 231.5,104.833 231.5,131.5C 225.167,131.5 218.833,131.5 212.5,131.5C 212.5,104.833 212.5,78.1667 212.5,51.5 Z"/></g>
<g><path style="opacity:1" fill="#e53d42" d="M 287.5,51.5 C 284.713,52.4767 281.713,52.81 278.5,52.5C 278.5,58.1667 278.5,63.8333 278.5,69.5C 281.385,69.1936 284.052,69.5269 286.5,70.5C 272.167,70.5 257.833,70.5 243.5,70.5C 243.5,64.1667 243.5,57.8333 243.5,51.5C 258.167,51.5 272.833,51.5 287.5,51.5 Z"/></g>
<g><path style="opacity:0.983" fill="#5551d5" d="M 480.5,125.5 C 481.461,127.265 481.795,129.265 481.5,131.5C 466.83,131.667 452.163,131.5 437.5,131C 423.833,127.999 416.667,119.499 416,105.5C 415.5,87.5031 415.333,69.5031 415.5,51.5C 421.833,51.5 428.167,51.5 434.5,51.5C 434.333,69.8364 434.5,88.1697 435,106.5C 436.629,110.232 439.462,112.399 443.5,113C 455.495,113.5 467.495,113.667 479.5,113.5C 479.165,118.278 479.498,122.278 480.5,125.5 Z"/></g>
<g><path style="opacity:0.965" fill="#a72b9a" d="M 522.5,50.5 C 529.258,49.7506 534.925,51.7506 539.5,56.5C 538.504,71.6576 538.17,86.9909 538.5,102.5C 533.871,92.4664 529.704,82.1331 526,71.5C 525.296,69.273 524.129,68.9397 522.5,70.5C 522.5,63.8333 522.5,57.1667 522.5,50.5 Z"/></g>
<g><path style="opacity:0.985" fill="#c6277b" d="M 575.5,51.5 C 575.5,61.8333 575.5,72.1667 575.5,82.5C 567.837,72.8228 560.503,62.8228 553.5,52.5C 560.803,51.5027 568.137,51.1694 575.5,51.5 Z"/></g>
<g><path style="opacity:0.975" fill="#de394b" d="M 616.5,51.5 C 623.532,51.1697 630.532,51.503 637.5,52.5C 630.723,62.4108 623.723,72.0775 616.5,81.5C 616.5,71.5 616.5,61.5 616.5,51.5 Z"/></g>
<g><path style="opacity:0.965" fill="#eb4235" d="M 299.5,53.5 C 312.06,59.6216 316.893,69.6216 314,83.5C 312.342,91.5099 307.842,97.1766 300.5,100.5C 299.504,85.0089 299.17,69.3422 299.5,53.5 Z"/></g>
<g><path style="opacity:0.984" fill="#8e36ad" d="M 522.5,50.5 C 522.5,57.1667 522.5,63.8333 522.5,70.5C 518.118,82.9328 513.451,95.2662 508.5,107.5C 507.504,91.6754 507.17,75.6754 507.5,59.5C 510.688,53.7296 515.688,50.7296 522.5,50.5 Z"/></g>
<g><path style="opacity:0.971" fill="#d8345a" d="M 179.5,58.5 C 189.228,82.6837 198.561,107.017 207.5,131.5C 200.825,131.666 194.158,131.5 187.5,131C 184.007,123.355 181.007,115.522 178.5,107.5C 179.077,91.1639 179.411,74.8306 179.5,58.5 Z"/></g>
<g><path style="opacity:0.954" fill="#d93558" d="M 616.5,51.5 C 616.5,61.5 616.5,71.5 616.5,81.5C 612.885,86.9546 609.052,92.288 605,97.5C 604.831,109.007 604.331,120.341 603.5,131.5C 603.821,111.424 603.487,91.4241 602.5,71.5C 606.687,64.4461 611.353,57.7794 616.5,51.5 Z"/></g>
<g><path style="opacity:0.986" fill="#cc2c6d" d="M 575.5,51.5 C 580.328,57.8174 584.662,64.4841 588.5,71.5C 588.5,91.5 588.5,111.5 588.5,131.5C 586.685,120.879 585.852,109.879 586,98.5C 582.231,93.2808 578.731,87.9475 575.5,82.5C 575.5,72.1667 575.5,61.8333 575.5,51.5 Z"/></g>
<g><path style="opacity:0.991" fill="#d02f66" d="M 588.5,71.5 C 590.949,74.7607 593.616,77.7607 596.5,80.5C 596.5,97.5 596.5,114.5 596.5,131.5C 593.833,131.5 591.167,131.5 588.5,131.5C 588.5,111.5 588.5,91.5 588.5,71.5 Z"/></g>
<g><path style="opacity:0.996" fill="#d5325f" d="M 602.5,71.5 C 603.487,91.4241 603.821,111.424 603.5,131.5C 601.167,131.5 598.833,131.5 596.5,131.5C 596.5,114.5 596.5,97.5 596.5,80.5C 598.265,77.2911 600.265,74.2911 602.5,71.5 Z"/></g>
<g><path style="opacity:0.971" fill="#813cb6" d="M 507.5,59.5 C 507.17,75.6754 507.504,91.6754 508.5,107.5C 505.349,115.141 502.182,122.808 499,130.5C 497.989,131.337 496.822,131.67 495.5,131.5C 495.829,117.99 495.496,104.656 494.5,91.5C 498.321,80.5388 502.654,69.8721 507.5,59.5 Z"/></g>
<g><path style="opacity:0.946" fill="#b7248f" d="M 539.5,56.5 C 541.136,57.7489 542.303,59.4156 543,61.5C 547.14,72.0878 550.973,82.7544 554.5,93.5C 554.5,106.167 554.5,118.833 554.5,131.5C 552.5,131.5 550.5,131.5 548.5,131.5C 545.167,121.833 541.833,112.167 538.5,102.5C 538.17,86.9909 538.504,71.6576 539.5,56.5 Z"/></g>
<g><path style="opacity:0.931" fill="#c92a75" d="M 76.5,84.5 C 90.8333,84.5 105.167,84.5 119.5,84.5C 120.356,91.7887 117.69,97.2887 111.5,101C 100.898,102.403 90.231,102.903 79.5,102.5C 79.5,96.8333 79.5,91.1667 79.5,85.5C 78.209,85.7373 77.209,85.404 76.5,84.5 Z"/></g>
<g><path style="opacity:0.988" fill="#e23c46" d="M 260.5,85.5 C 260.987,100.829 261.32,116.163 261.5,131.5C 255.5,131.5 249.5,131.5 243.5,131.5C 243.099,118.448 243.599,105.448 245,92.5C 248.319,86.2598 253.485,83.9265 260.5,85.5 Z"/></g>
<g><path style="opacity:0.963" fill="#c02384" d="M 554.5,93.5 C 559.723,105.631 564.723,117.964 569.5,130.5C 564.544,131.494 559.544,131.827 554.5,131.5C 554.5,118.833 554.5,106.167 554.5,93.5 Z"/></g>
<g><path style="opacity:0.961" fill="#7343c0" d="M 494.5,91.5 C 495.496,104.656 495.829,117.99 495.5,131.5C 490.833,131.5 486.167,131.5 481.5,131.5C 481.795,129.265 481.461,127.265 480.5,125.5C 484.99,114.015 489.656,102.681 494.5,91.5 Z"/></g>
<g><path style="opacity:0.934" fill="#05050f" d="M 253.5,146.5 C 271.5,146.5 289.5,146.5 307.5,146.5C 307.105,149.686 306.105,152.686 304.5,155.5C 293.833,156.167 283.167,156.833 272.5,157.5C 272.167,158.167 271.833,158.833 271.5,159.5C 281.833,160.167 292.167,160.833 302.5,161.5C 299.789,169.136 296.789,176.636 293.5,184C 277.49,184.833 261.49,184.666 245.5,183.5C 246.801,180.573 247.801,177.573 248.5,174.5C 259.415,174.82 270.248,174.487 281,173.5C 281.374,172.584 281.874,171.75 282.5,171C 272.172,170.5 261.839,170.334 251.5,170.5C 252.798,164.441 254.798,158.608 257.5,153C 255.915,150.931 254.581,148.764 253.5,146.5 Z"/></g>
<g><path style="opacity:0.931" fill="#05050f" d="M 313.5,146.5 C 331.5,146.5 349.5,146.5 367.5,146.5C 364.799,154.91 361.799,163.243 358.5,171.5C 347.849,172.332 337.182,172.832 326.5,173C 324.833,176.667 323.167,180.333 321.5,184C 316.136,184.829 310.802,184.663 305.5,183.5C 309.407,173.277 313.407,163.11 317.5,153C 315.915,150.931 314.581,148.764 313.5,146.5 Z M 332.5,156.5 C 337.544,156.173 342.544,156.506 347.5,157.5C 345.811,161.517 342.644,163.184 338,162.5C 331.396,163.581 329.562,161.581 332.5,156.5 Z"/></g>
<g><path style="opacity:0.947" fill="#05050f" d="M 373.5,146.5 C 391.5,146.5 409.5,146.5 427.5,146.5C 423.134,159.097 418.467,171.597 413.5,184C 397.503,184.5 381.503,184.667 365.5,184.5C 368.807,173.746 372.807,163.246 377.5,153C 375.768,151.028 374.435,148.861 373.5,146.5 Z M 392.5,156.5 C 397.511,156.334 402.511,156.501 407.5,157C 405.167,162.667 402.833,168.333 400.5,174C 395.5,174.667 390.5,174.667 385.5,174C 387.934,168.195 390.268,162.361 392.5,156.5 Z"/></g>
<g><path style="opacity:0.94" fill="#05050f" d="M 433.5,146.5 C 451.5,146.5 469.5,146.5 487.5,146.5C 484.903,154.62 481.903,162.62 478.5,170.5C 475.833,171.167 473.167,171.833 470.5,172.5C 471.816,176.429 472.816,180.429 473.5,184.5C 468.156,184.666 462.823,184.499 457.5,184C 456.093,180.214 454.76,176.381 453.5,172.5C 451.167,171.167 448.833,171.167 446.5,172.5C 444.927,176.392 443.26,180.225 441.5,184C 436.177,184.499 430.844,184.666 425.5,184.5C 428.807,173.746 432.807,163.246 437.5,153C 435.768,151.028 434.435,148.861 433.5,146.5 Z M 452.5,156.5 C 457.511,156.334 462.511,156.501 467.5,157C 466.833,158.333 466.167,159.667 465.5,161C 460.5,161.667 455.5,161.667 450.5,161C 451.267,159.53 451.933,158.03 452.5,156.5 Z"/></g>
<g><path style="opacity:0.928" fill="#05050f" d="M 492.5,147.5 C 509.995,146.338 527.662,146.171 545.5,147C 544.167,150 542.833,153 541.5,156C 536.5,156.333 531.5,156.667 526.5,157C 522.871,165.762 519.371,174.596 516,183.5C 510.554,184.806 505.054,184.806 499.5,183.5C 502.833,174.833 506.167,166.167 509.5,157.5C 506.215,156.676 502.882,156.176 499.5,156C 497.302,152.977 494.969,150.144 492.5,147.5 Z"/></g>
<g><path style="opacity:0.936" fill="#05050f" d="M 550.5,146.5 C 568.5,146.5 586.5,146.5 604.5,146.5C 604.223,149.89 603.223,153.057 601.5,156C 590.818,156.168 580.151,156.668 569.5,157.5C 569.167,158.167 568.833,158.833 568.5,159.5C 578.812,160.499 589.145,160.832 599.5,160.5C 596.996,168.51 593.996,176.343 590.5,184C 574.49,184.833 558.49,184.666 542.5,183.5C 544.105,180.686 545.105,177.686 545.5,174.5C 556.5,174.5 567.5,174.5 578.5,174.5C 578.33,173.178 578.663,172.011 579.5,171C 569.172,170.5 558.839,170.334 548.5,170.5C 549.798,164.441 551.798,158.607 554.5,153C 552.93,150.941 551.597,148.774 550.5,146.5 Z"/></g>
<g><path style="opacity:0.975" fill="#c5277a" d="M 93.5,162.5 C 91.0521,163.473 88.3854,163.806 85.5,163.5C 85.4729,165.199 84.8062,166.533 83.5,167.5C 73.8333,167.5 64.1667,167.5 54.5,167.5C 54.5,165.833 54.5,164.167 54.5,162.5C 67.5,162.5 80.5,162.5 93.5,162.5 Z"/></g>
<g><path style="opacity:0.91" fill="#cf2d6a" d="M 93.5,162.5 C 104.167,162.5 114.833,162.5 125.5,162.5C 127.607,163.468 129.941,163.802 132.5,163.5C 132.5,164.833 132.5,166.167 132.5,167.5C 116.167,167.5 99.8333,167.5 83.5,167.5C 84.8062,166.533 85.4729,165.199 85.5,163.5C 88.3854,163.806 91.0521,163.473 93.5,162.5 Z"/></g>
<g><path style="opacity:0.926" fill="#d4325d" d="M 125.5,162.5 C 136.167,162.5 146.833,162.5 157.5,162.5C 158.209,163.404 159.209,163.737 160.5,163.5C 160.473,165.199 159.806,166.533 158.5,167.5C 149.833,167.5 141.167,167.5 132.5,167.5C 132.5,166.167 132.5,164.833 132.5,163.5C 129.941,163.802 127.607,163.468 125.5,162.5 Z"/></g>
<g><path style="opacity:0.931" fill="#dd384f" d="M 157.5,162.5 C 166.833,162.5 176.167,162.5 185.5,162.5C 187.607,163.468 189.941,163.802 192.5,163.5C 192.5,164.833 192.5,166.167 192.5,167.5C 181.167,167.5 169.833,167.5 158.5,167.5C 159.806,166.533 160.473,165.199 160.5,163.5C 159.209,163.737 158.209,163.404 157.5,162.5 Z"/></g>
<g><path style="opacity:0.876" fill="#e33c43" d="M 185.5,162.5 C 195.833,162.5 206.167,162.5 216.5,162.5C 218.265,163.461 220.265,163.795 222.5,163.5C 222.433,164.959 222.766,166.292 223.5,167.5C 213.167,167.5 202.833,167.5 192.5,167.5C 192.5,166.167 192.5,164.833 192.5,163.5C 189.941,163.802 187.607,163.468 185.5,162.5 Z"/></g>
<g><path style="opacity:0.875" fill="#e94036" d="M 216.5,162.5 C 228.186,162.168 239.852,162.501 251.5,163.5C 250.96,164.748 250.293,165.915 249.5,167C 240.84,167.5 232.173,167.666 223.5,167.5C 222.766,166.292 222.433,164.959 222.5,163.5C 220.265,163.795 218.265,163.461 216.5,162.5 Z"/></g>
<g><path style="opacity:0.948" fill="#cf2d67" d="M 618.5,162.5 C 617.833,164.167 617.167,165.833 616.5,167.5C 610.794,167.829 605.128,167.495 599.5,166.5C 600.04,165.252 600.707,164.085 601.5,163C 607.157,162.501 612.824,162.334 618.5,162.5 Z"/></g>
<g><path style="opacity:0.91" fill="#de384d" d="M 618.5,162.5 C 622.833,162.5 627.167,162.5 631.5,162.5C 631.5,164.167 631.5,165.833 631.5,167.5C 626.5,167.5 621.5,167.5 616.5,167.5C 617.167,165.833 617.833,164.167 618.5,162.5 Z"/></g>
<g><path style="opacity:0.865" fill="#e94037" d="M 631.5,162.5 C 633.5,162.5 635.5,162.5 637.5,162.5C 637.5,164.167 637.5,165.833 637.5,167.5C 635.5,167.5 633.5,167.5 631.5,167.5C 631.5,165.833 631.5,164.167 631.5,162.5 Z"/></g>
</svg>
